<?xml version="1.0" encoding="utf-8"?>
<!-- Generator: Adobe Illustrator 17.0.0, SVG Export Plug-In . SVG Version: 6.00 Build 0)  -->
<!DOCTYPE svg PUBLIC "-//W3C//DTD SVG 1.1//EN" "http://www.w3.org/Graphics/SVG/1.1/DTD/svg11.dtd">
<svg version="1.1" id="Layer_1" xmlns="http://www.w3.org/2000/svg" xmlns:xlink="http://www.w3.org/1999/xlink" x="0px" y="0px"
	 width="256px" height="256px" viewBox="0 0 256 256" enable-background="new 0 0 256 256" xml:space="preserve">
<g>
	<path fill="#F26B54" d="M130.697,94.965c3.556-3.64,3.733-9.377,0.675-13.559l-14.214,14.548
		C121.41,98.915,127.141,98.606,130.697,94.965z"/>
</g>
<ellipse fill="#FFE07F" cx="98.067" cy="70.584" rx="8.116" ry="8.447"/>
<path fill="#EBCBDA" d="M109.675,39.024c0.102-0.499,1.097-1.325,1.522-1.606c1.452-0.958,5.387-0.748,6.958,0
	c1.868,0.889,4.535,3.95,5.419,5.82c0.788,1.667,0.016,6.477,1.271,7.827c1.514,1.629,6.838,1.005,8.563,2.408
	c0.731,0.595,1.516,2.429,1.739,3.345c0.405,1.657-1.103,5.522,0,6.824c0.658,0.776,2.092,1.125,3.108,1.171
	c1.104,0.05,2.228-0.786,2.512-0.502c0.355,0.355,0.316,1.617,0,2.007c-0.404,0.499-1.87,0.558-2.512,0.535
	c-1.33-0.047-4.024-0.745-4.847-1.79c-2.057-2.609-0.171-6.056-0.788-7.8c-0.186-0.525-0.486-1.232-0.918-1.583
	c-1.751-1.421-7.488-1.068-8.998-2.743c-1.391-1.543-0.957-6.767-1.84-8.647c-0.663-1.411-2.559-3.693-3.914-4.466
	c-1.05-0.598-3.673-0.79-4.817-0.401c-0.441,0.15-1.28,0.744-1.739,0.669C109.673,39.978,109.635,39.221,109.675,39.024z"/>
<ellipse fill="#A2D9CE" cx="158.203" cy="43.28" rx="3.98" ry="4.142"/>
<path fill="#C4484C" d="M190.067,31.105c0,0-6.791,7.895-8.344,10.971c-1.566,3.102-3.902,13.34-3.902,13.34l2.402,1.124
	c0,0,2.211-10.005,3.721-13.04c1.521-3.055,8.214-10.902,8.214-10.902L190.067,31.105z"/>
<g>
	<path fill="#F26B54" d="M167.245,121.308c-4.751-1.824-10.088,0.286-12.717,4.75l18.988,7.291
		C174.55,128.272,171.996,123.132,167.245,121.308z"/>
</g>
<ellipse transform="matrix(-0.396 -0.9182 0.9182 -0.396 81.1267 432.7297)" fill="#FFE07F" cx="182.88" cy="189.684" rx="8.116" ry="8.447"/>
<path fill="#EBCBDA" d="M149.303,191.523c-0.499,0.104-1.651-0.482-2.077-0.762c-1.454-0.954-2.82-4.651-2.755-6.389
	c0.077-2.067,1.831-5.728,3.199-7.281c1.218-1.383,5.941-2.58,6.684-4.267c0.896-2.035-1.785-6.677-1.18-8.817
	c0.256-0.907,1.631-2.354,2.383-2.922c1.361-1.028,5.507-1.174,6.266-2.702c0.452-0.911,0.204-2.366-0.156-3.318
	c-0.391-1.034-1.604-1.735-1.455-2.108c0.185-0.466,1.36-0.93,1.843-0.795c0.618,0.173,1.253,1.496,1.486,2.094
	c0.484,1.24,0.91,3.99,0.276,5.16c-1.581,2.922-5.493,2.555-6.851,3.812c-0.408,0.378-0.939,0.934-1.09,1.47
	c-0.611,2.171,1.985,7.299,1.045,9.349c-0.866,1.888-5.835,3.558-7.212,5.114c-1.033,1.168-2.378,3.812-2.551,5.362
	c-0.134,1.201,0.729,3.685,1.539,4.582c0.312,0.346,1.19,0.88,1.303,1.332C150.179,191.147,149.5,191.482,149.303,191.523z"/>
<ellipse transform="matrix(-0.396 -0.9182 0.9182 -0.396 53.6556 325.8471)" fill="#A2D9CE" cx="133.993" cy="145.277" rx="3.98" ry="4.142"/>
<path fill="#5F6FA0" d="M131.484,108.427c0,0,9.938,3.11,13.378,3.317c3.469,0.209,13.795-1.7,13.795-1.7l0.081-2.65
	c0,0-10.062,1.932-13.447,1.747c-3.407-0.186-13.263-3.225-13.263-3.225L131.484,108.427z"/>
<g>
	<path fill="#F26B54" d="M37.876,143.016c0.989,4.992,5.62,8.383,10.798,8.227l-3.954-19.952
		C39.874,133.123,36.887,138.024,37.876,143.016z"/>
</g>
<ellipse transform="matrix(-0.5658 0.8246 -0.8246 -0.5658 229.4199 124.8042)" fill="#FFE07F" cx="81.847" cy="122.812" rx="8.116" ry="8.447"/>
<path fill="#EBCBDA" d="M101.304,150.239c0.354,0.367,0.472,1.654,0.463,2.163c-0.032,1.739-2.431,4.865-3.936,5.737
	c-1.79,1.037-5.823,1.504-7.865,1.175c-1.82-0.293-5.35-3.651-7.173-3.38c-2.2,0.327-4.698,5.07-6.831,5.699
	c-0.904,0.267-2.861-0.125-3.742-0.458c-1.596-0.604-3.93-4.033-5.627-3.861c-1.012,0.103-2.111,1.089-2.724,1.9
	c-0.666,0.882-0.613,2.282-1.007,2.355c-0.493,0.092-1.512-0.655-1.655-1.135c-0.183-0.615,0.598-1.858,0.98-2.374
	c0.791-1.07,2.89-2.896,4.218-2.985c3.315-0.22,5.09,3.285,6.878,3.764c0.538,0.144,1.291,0.296,1.824,0.138
	c2.162-0.64,5.117-5.57,7.353-5.868c2.059-0.274,6.121,3.04,8.171,3.375c1.539,0.252,4.493-0.021,5.896-0.701
	c1.087-0.527,2.729-2.581,3.056-3.745c0.126-0.449,0.111-1.476,0.432-1.813C100.519,149.698,101.164,150.095,101.304,150.239z"/>
<ellipse transform="matrix(-0.5658 0.8246 -0.8246 -0.5658 265.0286 236.1206)" fill="#A2D9CE" cx="70.34" cy="187.847" rx="3.98" ry="4.142"/>
<path fill="#5F6FA0" d="M62.351,221.009c0,0-2.667-10.066-4.326-13.087c-1.672-3.046-8.793-10.765-8.793-10.765l-2.285,1.345
	c0,0,6.999,7.483,8.647,10.446c1.659,2.982,4.342,12.94,4.342,12.94L62.351,221.009z"/>
<ellipse fill="#A2D9CE" cx="73.503" cy="51.818" rx="3.98" ry="4.142"/>
<ellipse fill="#A2D9CE" cx="188.97" cy="70.584" rx="3.98" ry="4.142"/>
<path fill="#5F6FA0" d="M58.865,121.395c0,0-6.883-7.814-9.716-9.776c-2.857-1.978-12.675-5.703-12.675-5.703l-1.444,2.224
	c0,0,9.605,3.568,12.402,5.483c2.816,1.927,9.666,9.638,9.666,9.638L58.865,121.395z"/>
<path fill="#A2D9CE" d="M218.179,85.756c0,0-9.889,3.263-12.806,5.098c-2.941,1.851-10.222,9.419-10.222,9.419l1.478,2.201
	c0,0,7.053-7.433,9.912-9.254c2.878-1.834,12.659-5.106,12.659-5.106L218.179,85.756z"/>
<ellipse transform="matrix(-0.396 -0.9182 0.9182 -0.396 -51.663 401.4049)" fill="#C4484C" cx="106.183" cy="217.693" rx="8.116" ry="8.447"/>
<ellipse fill="#D9CAE3" cx="211.156" cy="36.777" rx="3.98" ry="4.142"/>
<ellipse fill="#D9CAE3" cx="42.968" cy="81.398" rx="3.98" ry="4.142"/>
<ellipse fill="#D9CAE3" cx="195.258" cy="85.541" rx="3.98" ry="4.142"/>
<path fill="#479BA1" d="M199.648,205.149c0.319,0.397,0.321,1.69,0.265,2.196c-0.189,1.729-2.861,4.625-4.439,5.358
	c-1.876,0.871-5.935,0.972-7.939,0.459c-1.786-0.457-4.998-4.12-6.838-4.015c-2.22,0.126-5.137,4.624-7.318,5.057
	c-0.924,0.184-2.838-0.383-3.686-0.795c-1.535-0.745-3.549-4.372-5.255-4.354c-1.017,0.011-2.2,0.893-2.884,1.646
	c-0.743,0.818-0.817,2.217-1.216,2.254c-0.5,0.047-1.447-0.789-1.545-1.281c-0.127-0.629,0.764-1.796,1.19-2.276
	c0.884-0.994,3.141-2.623,4.471-2.591c3.322,0.081,4.772,3.732,6.509,4.37c0.523,0.192,1.258,0.412,1.804,0.303
	c2.211-0.442,5.6-5.085,7.853-5.179c2.075-0.087,5.821,3.581,7.832,4.1c1.51,0.39,4.477,0.386,5.936-0.164
	c1.131-0.427,2.952-2.324,3.382-3.453c0.166-0.435,0.244-1.46,0.595-1.766C198.916,204.539,199.523,204.993,199.648,205.149z"/>
<path fill="#479BA1" d="M41.821,33.496c0,0,2.597,10.085,4.234,13.117c1.651,3.058,8.717,10.826,8.717,10.826l2.295-1.328
	c0,0-6.946-7.532-8.573-10.506c-1.638-2.994-4.251-12.971-4.251-12.971L41.821,33.496z"/>
<ellipse transform="matrix(-0.396 -0.9182 0.9182 -0.396 -21.7464 414.1761)" fill="#A2D9CE" cx="125.342" cy="214.24" rx="3.98" ry="4.142"/>
<ellipse fill="#D9CAE3" cx="89.951" cy="171.837" rx="3.98" ry="4.142"/>
<ellipse fill="#479BA1" cx="215.136" cy="161.722" rx="3.98" ry="4.142"/>
<ellipse fill="#D9CAE3" cx="207.176" cy="224.287" rx="3.98" ry="4.142"/>
<ellipse fill="#C4484C" cx="81.847" cy="79.998" rx="3.98" ry="4.142"/>
<ellipse fill="#D9CAE3" cx="154.528" cy="89.973" rx="3.98" ry="4.142"/>
<ellipse fill="#D9CAE3" cx="114.581" cy="189.684" rx="3.98" ry="4.142"/>
<ellipse fill="#479BA1" cx="106.183" cy="133.348" rx="3.98" ry="4.142"/>
<ellipse fill="#D9CAE3" cx="188.97" cy="137.49" rx="3.98" ry="4.142"/>
<ellipse fill="#479BA1" cx="182.88" cy="161.722" rx="3.98" ry="4.142"/>
<ellipse fill="#D9CAE3" cx="207.176" cy="73.174" rx="3.98" ry="4.142"/>
<ellipse transform="matrix(-0.396 -0.9182 0.9182 -0.396 229.7876 387.8015)" fill="#A2D9CE" cx="242.434" cy="118.328" rx="3.98" ry="4.142"/>
<ellipse transform="matrix(-0.396 -0.9182 0.9182 -0.396 334.1048 241.7299)" fill="#A2D9CE" cx="246.553" cy="10.984" rx="3.98" ry="4.142"/>
<ellipse transform="matrix(-0.396 -0.9182 0.9182 -0.396 -17.1976 467.3726)" fill="#A2D9CE" cx="145.111" cy="239.342" rx="3.98" ry="4.142"/>
<ellipse transform="matrix(-0.396 -0.9182 0.9182 -0.396 143.7868 531.0714)" fill="#A2D9CE" cx="246.553" cy="218.247" rx="3.98" ry="4.142"/>
<ellipse fill="#D9CAE3" cx="22.796" cy="239.342" rx="3.98" ry="4.142"/>
<ellipse fill="#D9CAE3" cx="69.523" cy="245.337" rx="3.98" ry="4.142"/>
<ellipse fill="#D9CAE3" cx="65.543" cy="10.984" rx="3.98" ry="4.142"/>
<ellipse fill="#D9CAE3" cx="22.796" cy="66.859" rx="3.98" ry="4.142"/>
<ellipse transform="matrix(-0.396 -0.9182 0.9182 -0.396 285.1106 291.171)" fill="#C4484C" cx="238.316" cy="51.818" rx="8.116" ry="8.447"/>
<g>
	<path fill="#F26B54" d="M228.893,193.49c4.043,3.091,9.759,2.574,13.541-0.966l-16.157-12.355
		C223.852,184.747,224.851,190.399,228.893,193.49z"/>
</g>
<g>
	<path fill="#F26B54" d="M14.007,24.305c4.043,3.091,9.759,2.574,13.541-0.966L11.391,10.984
		C8.965,15.562,9.964,21.214,14.007,24.305z"/>
</g>
<path fill="#EBCBDA" d="M32.493,199.784c-0.296,0.415-1.539,0.768-2.041,0.853c-1.715,0.288-5.229-1.496-6.363-2.815
	c-1.349-1.569-2.549-5.447-2.601-7.515c-0.046-1.843,2.605-5.93,2.004-7.673c-0.726-2.102-5.847-3.686-6.857-5.667
	c-0.428-0.84-0.403-2.835-0.238-3.763c0.3-1.679,3.242-4.604,2.761-6.241c-0.287-0.976-1.458-1.875-2.369-2.328
	c-0.989-0.492-2.355-0.183-2.5-0.557c-0.181-0.468,0.365-1.607,0.812-1.835c0.571-0.293,1.936,0.246,2.514,0.527
	c1.197,0.581,3.378,2.309,3.709,3.598c0.826,3.218-2.294,5.607-2.435,7.452c-0.043,0.555-0.054,1.323,0.2,1.819
	c1.027,2.008,6.416,4.006,7.119,6.149c0.648,1.974-1.863,6.575-1.815,8.652c0.035,1.559,0.846,4.413,1.773,5.667
	c0.718,0.972,3.039,2.208,4.243,2.316c0.464,0.041,1.471-0.162,1.861,0.092C32.881,198.913,32.609,199.621,32.493,199.784z"/>
<path fill="#C4484C" d="M14.327,100.944c0,0-1.197,10.345-0.758,13.762c0.443,3.446,4.249,13.234,4.249,13.234l2.619-0.416
	c0,0-3.779-9.524-4.23-12.884c-0.454-3.382,0.689-13.632,0.689-13.632L14.327,100.944z"/>
<path fill="#5F6FA0" d="M223.638,138.326c0,0,5.009,9.13,7.345,11.663c2.355,2.555,11.122,8.336,11.122,8.336L244,156.47
	c0,0-8.593-5.581-10.904-8.061c-2.327-2.496-7.326-11.517-7.326-11.517L223.638,138.326z"/>
<path fill="#479BA1" d="M234.82,244.846c0,0-4.678-9.304-6.921-11.919c-2.262-2.638-10.816-8.729-10.816-8.729l-1.96,1.785
	c0,0,8.387,5.886,10.608,8.447c2.236,2.578,6.908,11.773,6.908,11.773L234.82,244.846z"/>
<ellipse fill="#C4484C" cx="164.136" cy="239.342" rx="3.98" ry="4.142"/>
<ellipse fill="#C4484C" cx="168.116" cy="10.984" rx="3.98" ry="4.142"/>
<ellipse fill="#C4484C" cx="77.867" cy="235.2" rx="3.98" ry="4.142"/>
<ellipse fill="#C4484C" cx="81.847" cy="22.804" rx="3.98" ry="4.142"/>
<ellipse fill="#479BA1" cx="35.03" cy="243.485" rx="3.98" ry="4.142"/>
<ellipse fill="#479BA1" cx="138.111" cy="6.977" rx="3.98" ry="4.142"/>
<ellipse fill="#479BA1" cx="229.918" cy="31.105" rx="3.98" ry="4.142"/>
<ellipse fill="#D9CAE3" cx="238.316" cy="88.283" rx="3.98" ry="4.142"/>
<ellipse transform="matrix(-0.396 -0.9182 0.9182 -0.396 211.9103 344.3348)" fill="#FFE07F" cx="219.2" cy="102.474" rx="8.116" ry="8.447"/>
<ellipse transform="matrix(-0.396 -0.9182 0.9182 -0.396 267.9287 198.4729)" fill="#FFE07F" cx="199.238" cy="11.12" rx="8.116" ry="8.447"/>
<ellipse transform="matrix(-0.396 -0.9182 0.9182 -0.396 -176.8275 312.1696)" fill="#FFE07F" cx="14.253" cy="214.24" rx="8.116" ry="8.447"/>
<path fill="#EBCBDA" d="M97.128,254.61c-0.341-0.379-0.414-1.669-0.387-2.178c0.093-1.737,2.6-4.777,4.135-5.596
	c1.825-0.974,5.872-1.3,7.902-0.899c1.809,0.357,5.219,3.836,7.051,3.629c2.21-0.249,4.872-4.902,7.026-5.456
	c0.913-0.235,2.855,0.225,3.724,0.589c1.574,0.659,3.786,4.169,5.488,4.055c1.015-0.068,2.147-1.014,2.789-1.804
	c0.696-0.858,0.692-2.259,1.089-2.318c0.496-0.075,1.488,0.707,1.614,1.193c0.161,0.621-0.663,1.836-1.062,2.338
	c-0.828,1.042-2.99,2.793-4.32,2.835c-3.321,0.104-4.972-3.462-6.742-4.002c-0.532-0.163-1.279-0.341-1.818-0.202
	c-2.184,0.564-5.309,5.388-7.553,5.607c-2.067,0.202-6.011-3.252-8.048-3.659c-1.529-0.305-4.491-0.137-5.917,0.494
	c-1.105,0.489-2.818,2.484-3.185,3.635c-0.142,0.444-0.162,1.471-0.496,1.797C97.894,255.178,97.262,254.759,97.128,254.61z"/>
<path fill="#5F6FA0" d="M182.345,255.996c0,0,10.413,0.053,13.762-0.76c3.377-0.819,12.687-5.678,12.687-5.678l-0.701-2.557
	c0,0-9.051,4.803-12.341,5.621c-3.312,0.823-13.625,0.814-13.625,0.814L182.345,255.996z"/>
<path fill="#479BA1" d="M73.321,13.1c-0.264-0.436-0.096-1.717,0.026-2.212c0.415-1.689,3.444-4.209,5.105-4.728
	c1.975-0.617,6.011-0.183,7.931,0.588c1.711,0.687,4.413,4.741,6.251,4.879c2.218,0.166,5.7-3.909,7.919-4.052
	c0.941-0.061,2.763,0.753,3.549,1.272c1.423,0.941,2.943,4.801,4.637,5.007c1.01,0.123,2.299-0.596,3.076-1.253
	c0.844-0.713,1.101-2.09,1.502-2.075c0.501,0.019,1.33,0.972,1.364,1.473c0.043,0.641-0.993,1.68-1.479,2.099
	c-1.007,0.869-3.458,2.188-4.772,1.981c-3.282-0.516-4.24-4.327-5.878-5.188c-0.493-0.259-1.193-0.574-1.749-0.537
	c-2.25,0.147-6.22,4.305-8.466,4.102c-2.069-0.187-5.3-4.315-7.225-5.094c-1.445-0.585-4.387-0.971-5.906-0.617
	c-1.177,0.274-3.231,1.916-3.807,2.979c-0.222,0.41-0.433,1.415-0.822,1.673C73.967,13.801,73.425,13.272,73.321,13.1z"/>
<ellipse fill="#479BA1" cx="5.855" cy="55.96" rx="3.98" ry="4.142"/>
<ellipse fill="#D9CAE3" cx="250.671" cy="141.633" rx="3.98" ry="4.142"/>
</svg>
