<svg width="3095" height="886" viewBox="0 0 3095 886" fill="none" xmlns="http://www.w3.org/2000/svg">
    <path d="M2751.5 224.365C2755.27 217.965 2765.62 220.688 2764.74 227.847L2734.09 477.055C2733.71 480.202 2730.96 482.73 2727.56 483.074L2604.25 495.542C2598.63 496.11 2594.8 490.692 2597.54 486.041L2751.5 224.365Z" fill="white" />
    <path d="M2666.28 662.09C2662.48 668.469 2652.14 665.69 2653.06 658.536L2685.17 409.491C2685.58 406.349 2688.33 403.838 2691.73 403.511L2815.11 391.645C2820.74 391.104 2824.54 396.542 2821.77 401.178L2666.28 662.09Z" fill="white" />
    <path d="M324.5 552H436.5V618H239V267H324.5V552ZM520.281 310C505.281 310 492.948 305.667 483.281 297C473.948 288 469.281 277 469.281 264C469.281 250.667 473.948 239.667 483.281 231C492.948 222 505.281 217.5 520.281 217.5C534.948 217.5 546.948 222 556.281 231C565.948 239.667 570.781 250.667 570.781 264C570.781 277 565.948 288 556.281 297C546.948 305.667 534.948 310 520.281 310ZM562.781 339V618H477.281V339H562.781ZM730.742 335C750.409 335 767.576 339 782.242 347C797.242 355 808.742 365.5 816.742 378.5V339H902.242V617.5C902.242 643.167 897.076 666.333 886.742 687C876.742 708 861.242 724.667 840.242 737C819.576 749.333 793.742 755.5 762.742 755.5C721.409 755.5 687.909 745.667 662.242 726C636.576 706.667 621.909 680.333 618.242 647H702.742C705.409 657.667 711.742 666 721.742 672C731.742 678.333 744.076 681.5 758.742 681.5C776.409 681.5 790.409 676.333 800.742 666C811.409 656 816.742 639.833 816.742 617.5V578C808.409 591 796.909 601.667 782.242 610C767.576 618 750.409 622 730.742 622C707.742 622 686.909 616.167 668.242 604.5C649.576 592.5 634.742 575.667 623.742 554C613.076 532 607.742 506.667 607.742 478C607.742 449.333 613.076 424.167 623.742 402.5C634.742 380.833 649.576 364.167 668.242 352.5C686.909 340.833 707.742 335 730.742 335ZM816.742 478.5C816.742 457.167 810.742 440.333 798.742 428C787.076 415.667 772.742 409.5 755.742 409.5C738.742 409.5 724.242 415.667 712.242 428C700.576 440 694.742 456.667 694.742 478C694.742 499.333 700.576 516.333 712.242 529C724.242 541.333 738.742 547.5 755.742 547.5C772.742 547.5 787.076 541.333 798.742 529C810.742 516.667 816.742 499.833 816.742 478.5ZM1135.6 336C1167.6 336 1193.26 346.667 1212.6 368C1231.93 389 1241.6 418 1241.6 455V618H1156.6V466.5C1156.6 447.833 1151.76 433.333 1142.1 423C1132.43 412.667 1119.43 407.5 1103.1 407.5C1086.76 407.5 1073.76 412.667 1064.1 423C1054.43 433.333 1049.6 447.833 1049.6 466.5V618H964.098V248H1049.6V376.5C1058.26 364.167 1070.1 354.333 1085.1 347C1100.1 339.667 1116.93 336 1135.6 336ZM1456.51 545.5V618H1413.01C1382.01 618 1357.85 610.5 1340.51 595.5C1323.18 580.167 1314.51 555.333 1314.51 521V410H1280.51V339H1314.51V271H1400.01V339H1456.01V410H1400.01V522C1400.01 530.333 1402.01 536.333 1406.01 540C1410.01 543.667 1416.68 545.5 1426.01 545.5H1456.51ZM1617.64 622C1593.3 622 1571.64 617.833 1552.64 609.5C1533.64 601.167 1518.64 589.833 1507.64 575.5C1496.64 560.833 1490.47 544.5 1489.14 526.5H1573.64C1574.64 536.167 1579.14 544 1587.14 550C1595.14 556 1604.97 559 1616.64 559C1627.3 559 1635.47 557 1641.14 553C1647.14 548.667 1650.14 543.167 1650.14 536.5C1650.14 528.5 1645.97 522.667 1637.64 519C1629.3 515 1615.8 510.667 1597.14 506C1577.14 501.333 1560.47 496.5 1547.14 491.5C1533.8 486.167 1522.3 478 1512.64 467C1502.97 455.667 1498.14 440.5 1498.14 421.5C1498.14 405.5 1502.47 391 1511.14 378C1520.14 364.667 1533.14 354.167 1550.14 346.5C1567.47 338.833 1587.97 335 1611.64 335C1646.64 335 1674.14 343.667 1694.14 361C1714.47 378.333 1726.14 401.333 1729.14 430H1650.14C1648.8 420.333 1644.47 412.667 1637.14 407C1630.14 401.333 1620.8 398.5 1609.14 398.5C1599.14 398.5 1591.47 400.5 1586.14 404.5C1580.8 408.167 1578.14 413.333 1578.14 420C1578.14 428 1582.3 434 1590.64 438C1599.3 442 1612.64 446 1630.64 450C1651.3 455.333 1668.14 460.667 1681.14 466C1694.14 471 1705.47 479.333 1715.14 491C1725.14 502.333 1730.3 517.667 1730.64 537C1730.64 553.333 1725.97 568 1716.64 581C1707.64 593.667 1694.47 603.667 1677.14 611C1660.14 618.333 1640.3 622 1617.64 622ZM1765.95 478C1765.95 449.333 1771.28 424.167 1781.95 402.5C1792.95 380.833 1807.78 364.167 1826.45 352.5C1845.11 340.833 1865.95 335 1888.95 335C1908.61 335 1925.78 339 1940.45 347C1955.45 355 1966.95 365.5 1974.95 378.5V339H2060.45V618H1974.95V578.5C1966.61 591.5 1954.95 602 1939.95 610C1925.28 618 1908.11 622 1888.45 622C1865.78 622 1845.11 616.167 1826.45 604.5C1807.78 592.5 1792.95 575.667 1781.95 554C1771.28 532 1765.95 506.667 1765.95 478ZM1974.95 478.5C1974.95 457.167 1968.95 440.333 1956.95 428C1945.28 415.667 1930.95 409.5 1913.95 409.5C1896.95 409.5 1882.45 415.667 1870.45 428C1858.78 440 1852.95 456.667 1852.95 478C1852.95 499.333 1858.78 516.333 1870.45 529C1882.45 541.333 1896.95 547.5 1913.95 547.5C1930.95 547.5 1945.28 541.333 1956.95 529C1968.95 516.667 1974.95 499.833 1974.95 478.5ZM2277.8 545.5V618H2234.3C2203.3 618 2179.13 610.5 2161.8 595.5C2144.47 580.167 2135.8 555.333 2135.8 521V410H2101.8V339H2135.8V271H2221.3V339H2277.3V410H2221.3V522C2221.3 530.333 2223.3 536.333 2227.3 540C2231.3 543.667 2237.97 545.5 2247.3 545.5H2277.8ZM2438.93 622C2414.59 622 2392.93 617.833 2373.93 609.5C2354.93 601.167 2339.93 589.833 2328.93 575.5C2317.93 560.833 2311.76 544.5 2310.43 526.5H2394.93C2395.93 536.167 2400.43 544 2408.43 550C2416.43 556 2426.26 559 2437.93 559C2448.59 559 2456.76 557 2462.43 553C2468.43 548.667 2471.43 543.167 2471.43 536.5C2471.43 528.5 2467.26 522.667 2458.93 519C2450.59 515 2437.09 510.667 2418.43 506C2398.43 501.333 2381.76 496.5 2368.43 491.5C2355.09 486.167 2343.59 478 2333.93 467C2324.26 455.667 2319.43 440.5 2319.43 421.5C2319.43 405.5 2323.76 391 2332.43 378C2341.43 364.667 2354.43 354.167 2371.43 346.5C2388.76 338.833 2409.26 335 2432.93 335C2467.93 335 2495.43 343.667 2515.43 361C2535.76 378.333 2547.43 401.333 2550.43 430H2471.43C2470.09 420.333 2465.76 412.667 2458.43 407C2451.43 401.333 2442.09 398.5 2430.43 398.5C2420.43 398.5 2412.76 400.5 2407.43 404.5C2402.09 408.167 2399.43 413.333 2399.43 420C2399.43 428 2403.59 434 2411.93 438C2420.59 442 2433.93 446 2451.93 450C2472.59 455.333 2489.43 460.667 2502.43 466C2515.43 471 2526.76 479.333 2536.43 491C2546.43 502.333 2551.59 517.667 2551.93 537C2551.93 553.333 2547.26 568 2537.93 581C2528.93 593.667 2515.76 603.667 2498.43 611C2481.43 618.333 2461.59 622 2438.93 622Z" fill="white" />
</svg>